<svg id="color" enable-background="new 0 0 24 24" height="512" viewBox="0 0 24 24" width="512" xmlns="http://www.w3.org/2000/svg"><path d="m12 17c-.205 0-.401-.084-.543-.232l-5.25-5.5c-.455-.477-.113-1.268.543-1.268h2.75v-1.25c0-4.273 3.477-7.75 7.75-7.75.414 0 .75.336.75.75s-.336.75-.75.75c-1.517 0-2.75 1.233-2.75 2.75v4.75h2.75c.656 0 .998.791.543 1.268l-5.25 5.5c-.142.148-.338.232-.543.232z" fill="#00bcd4"/><path d="m21 18h-18c-1.654 0-3 1.346-3 3s1.346 3 3 3h18c1.654 0 3-1.346 3-3s-1.346-3-3-3z" fill="#607d8b"/><path d="m12 3.054c-1.536 1.417-2.5 3.446-2.5 5.696v1.25h-2.75c-.656 0-.998.791-.543 1.268l5.25 5.5c.142.148.338.232.543.232z" fill="#00a4b9"/><path d="m12 18h-9c-1.654 0-3 1.346-3 3s1.346 3 3 3h9z" fill="#546d79"/></svg>